<?xml version="1.0" encoding="utf-8"?>
<!-- created with bpmn-js / http://bpmn.io -->
<!DOCTYPE svg PUBLIC "-//W3C//DTD SVG 1.1//EN" "http://www.w3.org/Graphics/SVG/1.1/DTD/svg11.dtd">
<svg xmlns="http://www.w3.org/2000/svg" xmlns:xlink="http://www.w3.org/1999/xlink" width="2164" height="685" viewBox="125 55 2164 685" version="1.1"><defs><pattern id="djs-grid-pattern-799672" width="10" height="10" patternUnits="userSpaceOnUse"><circle cx="0.5" cy="0.5" r="0.5" style="fill: rgb(204, 204, 204);"/></pattern></defs><g class="djs-group"><g class="djs-element djs-shape" data-element-id="Participant_Proces_aktualizace_dat_j_zdn_ch___d_" transform="matrix(1, 0, 0, 1, 130, 60)" style="display: block;"><g class="djs-visual"><rect x="0" y="0" width="2154" height="675" rx="0" ry="0" style="stroke-linecap: round; stroke-linejoin: round; stroke: rgb(34, 36, 42); stroke-width: 1.5px; fill: white; fill-opacity: 0.95;"/><path style="fill: none; stroke-linecap: round; stroke-linejoin: round; stroke: rgb(34, 36, 42); stroke-width: 1.5px;" d="M30,0L30,675"/><text style="font-family: Arial, sans-serif; font-size: 12px; font-weight: normal; fill: rgb(34, 36, 42);" lineHeight="1.2" class="djs-label" transform="matrix(-1.83697e-16, -1, 1, -1.83697e-16, 0, 675)"><tspan x="241.04166412353516" y="18.6">Proces aktualizace dat jízdních řádů</tspan></text></g><rect x="-5" y="-5" rx="4" width="2164" height="685" style="fill: none;" class="djs-outline"/><rect style="fill: none; stroke-opacity: 0; stroke: white; stroke-width: 15px;" class="djs-hit djs-hit-no-move" x="0" y="0" width="2154" height="675"/><rect style="fill: none; stroke-opacity: 0; stroke: white; stroke-width: 15px;" class="djs-hit djs-hit-click-stroke" x="0" y="0" width="2154" height="675"/><rect style="fill: none; stroke-opacity: 0; stroke: white; stroke-width: 15px;" class="djs-hit djs-hit-all" x="0" y="0" width="30" height="675"/></g><g class="djs-children"><g class="djs-group"><g class="djs-element djs-shape" data-element-id="Lane_Dopravce" transform="matrix(1, 0, 0, 1, 160, 60)" style="display: block;"><g class="djs-visual"><rect x="0" y="0" width="2124" height="235" rx="0" ry="0" style="stroke-linecap: round; stroke-linejoin: round; stroke: rgb(107, 60, 0); stroke-width: 1.5px; fill: rgb(255, 224, 178); fill-opacity: 0.25;"/><text style="font-family: Arial, sans-serif; font-size: 12px; font-weight: normal; fill: rgb(107, 60, 0);" lineHeight="1.2" class="djs-label" transform="matrix(-1.83697e-16, -1, 1, -1.83697e-16, 0, 235)"><tspan x="93.8083324432373" y="18.6">Dispečer</tspan></text></g><rect x="-5" y="-5" rx="4" width="2134" height="245" style="fill: none;" class="djs-outline"/><rect style="fill: none; stroke-opacity: 0; stroke: white; stroke-width: 15px;" class="djs-hit djs-hit-no-move" x="0" y="0" width="2124" height="235"/><rect style="fill: none; stroke-opacity: 0; stroke: white; stroke-width: 15px;" class="djs-hit djs-hit-click-stroke" x="0" y="0" width="2124" height="235"/><rect style="fill: none; stroke-opacity: 0; stroke: white; stroke-width: 15px;" class="djs-hit djs-hit-all" x="0" y="0" width="30" height="235"/></g></g><g class="djs-group"><g class="djs-element djs-shape" data-element-id="Lane_Informa_n__syst_m" transform="matrix(1, 0, 0, 1, 160, 540)" style="display: block;"><g class="djs-visual"><rect x="0" y="0" width="2124" height="195" rx="0" ry="0" style="stroke-linecap: round; stroke-linejoin: round; stroke: rgb(13, 67, 114); stroke-width: 1.5px; fill: rgb(187, 222, 251); fill-opacity: 0.25;"/><text style="font-family: Arial, sans-serif; font-size: 12px; font-weight: normal; fill: rgb(13, 67, 114);" lineHeight="1.2" class="djs-label" transform="matrix(-1.83697e-16, -1, 1, -1.83697e-16, 0, 195)"><tspan x="48.45833206176758" y="18.6">Informační systém</tspan></text></g><rect x="-5" y="-5" rx="4" width="2134" height="205" style="fill: none;" class="djs-outline"/><rect style="fill: none; stroke-opacity: 0; stroke: white; stroke-width: 15px;" class="djs-hit djs-hit-no-move" x="0" y="0" width="2124" height="195"/><rect style="fill: none; stroke-opacity: 0; stroke: white; stroke-width: 15px;" class="djs-hit djs-hit-click-stroke" x="0" y="0" width="2124" height="195"/><rect style="fill: none; stroke-opacity: 0; stroke: white; stroke-width: 15px;" class="djs-hit djs-hit-all" x="0" y="0" width="30" height="195"/></g></g><g class="djs-group"><g class="djs-element djs-shape" data-element-id="Lane_Spr_vce_syst_mu" transform="matrix(1, 0, 0, 1, 160, 295)" style="display: block;"><g class="djs-visual"><rect x="0" y="0" width="2124" height="245" rx="0" ry="0" style="stroke-linecap: round; stroke-linejoin: round; stroke: rgb(32, 80, 34); stroke-width: 1.5px; fill: rgb(200, 230, 201); fill-opacity: 0.25;"/><text style="font-family: Arial, sans-serif; font-size: 12px; font-weight: normal; fill: rgb(32, 80, 34);" lineHeight="1.2" class="djs-label" transform="matrix(-1.83697e-16, -1, 1, -1.83697e-16, 0, 245)"><tspan x="76.45833206176758" y="18.6">Správce systému</tspan></text></g><rect x="-5" y="-5" rx="4" width="2134" height="255" style="fill: none;" class="djs-outline"/><rect style="fill: none; stroke-opacity: 0; stroke: white; stroke-width: 15px;" class="djs-hit djs-hit-no-move" x="0" y="0" width="2124" height="245"/><rect style="fill: none; stroke-opacity: 0; stroke: white; stroke-width: 15px;" class="djs-hit djs-hit-click-stroke" x="0" y="0" width="2124" height="245"/><rect style="fill: none; stroke-opacity: 0; stroke: white; stroke-width: 15px;" class="djs-hit djs-hit-all" x="0" y="0" width="30" height="245"/></g></g><g class="djs-group"><g class="djs-element djs-shape" data-element-id="Zm_na_j_zdn_ho___du" transform="matrix(1, 0, 0, 1, 275, 120)" style="display: block;"><g class="djs-visual"><circle cx="25" cy="25" r="25" style="stroke-linecap: round; stroke-linejoin: round; stroke: rgb(34, 36, 42); stroke-width: 1.5px; fill: white; fill-opacity: 0.95;"/><circle cx="25" cy="25" r="22" style="stroke-linecap: round; stroke-linejoin: round; stroke: rgb(34, 36, 42); stroke-width: 1.5px; fill: none;"/></g><rect style="fill: none; stroke-opacity: 0; stroke: white; stroke-width: 15px;" class="djs-hit djs-hit-all" x="0" y="0" width="50" height="50"/><circle cx="25" cy="25" r="30" style="fill: none;" class="djs-outline"/></g></g><g class="djs-group"><g class="djs-element djs-shape" data-element-id="Zm_na_j_zdn_ho___du_label" transform="matrix(1, 0, 0, 1, 261, 170)" style="display: block;"><g class="djs-visual"><text style="font-family: Arial, sans-serif; font-size: 11px; font-weight: normal; fill: rgb(34, 36, 42);" lineHeight="1.2" class="djs-label"><tspan x="0" y="9.899999999999999">Změna jízdního </tspan><tspan x="28.41666603088379" y="23.099999999999998">řádu</tspan></text></g><rect style="fill: none; stroke-opacity: 0; stroke: white; stroke-width: 15px;" class="djs-hit djs-hit-all" x="0" y="0" width="79" height="27"/><rect x="-5" y="-5" rx="4" width="89" height="37" style="fill: none;" class="djs-outline"/></g></g><g class="djs-group"><g class="djs-element djs-shape" data-element-id="Informov_n__spr_vce_syst_mu_o_zm_n__j_zdn_ch___d_" transform="matrix(1, 0, 0, 1, 408, 105)" style="display: block;"><g class="djs-visual"><rect x="0" y="0" width="153" height="149" rx="10" ry="10" style="stroke-linecap: round; stroke-linejoin: round; stroke: rgb(34, 36, 42); stroke-width: 2px; fill: white; fill-opacity: 0.95;"/><text style="font-family: Arial, sans-serif; font-size: 12px; font-weight: normal; fill: rgb(34, 36, 42);" lineHeight="1.2" class="djs-label"><tspan x="20.433334350585938" y="63.7">Informování správce </tspan><tspan x="7.091667175292969" y="78.1">systému o změně jízdních</tspan><tspan x="64.47500038146973" y="92.5">řádů</tspan></text></g><rect style="fill: none; stroke-opacity: 0; stroke: white; stroke-width: 15px;" class="djs-hit djs-hit-all" x="0" y="0" width="153" height="149"/><rect x="-5" y="-5" rx="14" width="163" height="159" style="fill: none;" class="djs-outline"/></g></g><g class="djs-group"><g class="djs-element djs-shape" data-element-id="P_evzet__informace_o_zm_n__j_zdn_ho___du" transform="matrix(1, 0, 0, 1, 587, 372)" style="display: block;"><g class="djs-visual"><rect x="0" y="0" width="154" height="119" rx="10" ry="10" style="stroke-linecap: round; stroke-linejoin: round; stroke: rgb(34, 36, 42); stroke-width: 2px; fill: white; fill-opacity: 0.95;"/><text style="font-family: Arial, sans-serif; font-size: 12px; font-weight: normal; fill: rgb(34, 36, 42);" lineHeight="1.2" class="djs-label"><tspan x="20.275001525878906" y="55.9">Převzetí informace o </tspan><tspan x="22.583332061767578" y="70.3">změně jízdního řádu</tspan></text></g><rect style="fill: none; stroke-opacity: 0; stroke: white; stroke-width: 15px;" class="djs-hit djs-hit-all" x="0" y="0" width="154" height="119"/><rect x="-5" y="-5" rx="14" width="164" height="129" style="fill: none;" class="djs-outline"/></g></g><g class="djs-group"><g class="djs-element djs-shape" data-element-id="Odpov___na_dotaz" transform="matrix(1, 0, 0, 1, 1138, 143)" style="display: block;"><g class="djs-visual"><rect x="0" y="0" width="138" height="72" rx="10" ry="10" style="stroke-linecap: round; stroke-linejoin: round; stroke: rgb(34, 36, 42); stroke-width: 2px; fill: white; fill-opacity: 0.95;"/><text style="font-family: Arial, sans-serif; font-size: 12px; font-weight: normal; fill: rgb(34, 36, 42);" lineHeight="1.2" class="djs-label"><tspan x="19.566665649414062" y="39.6">Odpověď na dotaz</tspan></text></g><rect style="fill: none; stroke-opacity: 0; stroke: white; stroke-width: 15px;" class="djs-hit djs-hit-all" x="0" y="0" width="138" height="72"/><rect x="-5" y="-5" rx="14" width="148" height="82" style="fill: none;" class="djs-outline"/></g></g><g class="djs-group"><g class="djs-element djs-shape" data-element-id="ID__e_en__chyby_v_datech" transform="matrix(1, 0, 0, 1, 928, 435)" style="display: block;"><g class="djs-visual"><rect x="0" y="0" width="154" height="72" rx="10" ry="10" style="stroke-linecap: round; stroke-linejoin: round; stroke: rgb(34, 36, 42); stroke-width: 2px; fill: white; fill-opacity: 0.95;"/><text style="font-family: Arial, sans-serif; font-size: 12px; font-weight: normal; fill: rgb(34, 36, 42);" lineHeight="1.2" class="djs-label"><tspan x="16.25833511352539" y="39.6">Řešení chyby v datech</tspan></text></g><rect style="fill: none; stroke-opacity: 0; stroke: white; stroke-width: 15px;" class="djs-hit djs-hit-all" x="0" y="0" width="154" height="72"/><rect x="-5" y="-5" rx="14" width="164" height="82" style="fill: none;" class="djs-outline"/></g></g><g class="djs-group"><g class="djs-element djs-shape" data-element-id="Dopt_n__se_na_informace" transform="matrix(1, 0, 0, 1, 1143, 329)" style="display: block;"><g class="djs-visual"><rect x="0" y="0" width="142" height="72" rx="10" ry="10" style="stroke-linecap: round; stroke-linejoin: round; stroke: rgb(34, 36, 42); stroke-width: 2px; fill: white; fill-opacity: 0.95;"/><text style="font-family: Arial, sans-serif; font-size: 12px; font-weight: normal; fill: rgb(34, 36, 42);" lineHeight="1.2" class="djs-label"><tspan x="31.941665649414062" y="32.4">Doptání se na </tspan><tspan x="44.63333320617676" y="46.8">informace</tspan></text></g><rect style="fill: none; stroke-opacity: 0; stroke: white; stroke-width: 15px;" class="djs-hit djs-hit-all" x="0" y="0" width="142" height="72"/><rect x="-5" y="-5" rx="14" width="152" height="82" style="fill: none;" class="djs-outline"/></g></g><g class="djs-group"><g class="djs-element djs-shape" data-element-id="Byli_p_ed_ny_v_echny_informace_" transform="matrix(1, 0, 0, 1, 1333, 446)" style="display: block;"><g class="djs-visual"><polygon style="stroke-linecap: round; stroke-linejoin: round; stroke: rgb(34, 36, 42); stroke-width: 2px; fill: white; fill-opacity: 0.95;" points="25,0 50,25 25,50 0,25"/><path style="fill: rgb(34, 36, 42); stroke-linecap: round; stroke-linejoin: round; stroke: rgb(34, 36, 42); stroke-width: 1px;" d="m 16,15 7.42857142857143,9.714285714285715 -7.42857142857143,9.714285714285715 3.428571428571429,0 5.714285714285715,-7.464228571428572 5.714285714285715,7.464228571428572 3.428571428571429,0 -7.42857142857143,-9.714285714285715 7.42857142857143,-9.714285714285715 -3.428571428571429,0 -5.714285714285715,7.464228571428572 -5.714285714285715,-7.464228571428572 -3.428571428571429,0 z"/></g><rect style="fill: none; stroke-opacity: 0; stroke: white; stroke-width: 15px;" class="djs-hit djs-hit-all" x="0" y="0" width="50" height="50"/><rect style="transform-box: fill-box; transform: rotate(45deg); transform-origin: center center 0px; fill: none;" x="2" y="2" rx="4" width="46" height="46" class="djs-outline"/></g></g><g class="djs-group"><g class="djs-element djs-shape" data-element-id="Ru_n__kontrola_v_stupn_ch_dat" transform="matrix(1, 0, 0, 1, 1593, 392)" style="display: block;"><g class="djs-visual"><rect x="0" y="0" width="146" height="72" rx="10" ry="10" style="stroke-linecap: round; stroke-linejoin: round; stroke: rgb(34, 36, 42); stroke-width: 2px; fill: white; fill-opacity: 0.95;"/><text style="font-family: Arial, sans-serif; font-size: 12px; font-weight: normal; fill: rgb(34, 36, 42);" lineHeight="1.2" class="djs-label"><tspan x="32.61666488647461" y="32.4">Ruční kontrola </tspan><tspan x="34.28333282470703" y="46.8">výstupních dat</tspan></text></g><rect style="fill: none; stroke-opacity: 0; stroke: white; stroke-width: 15px;" class="djs-hit djs-hit-all" x="0" y="0" width="146" height="72"/><rect x="-5" y="-5" rx="14" width="156" height="82" style="fill: none;" class="djs-outline"/></g></g><g class="djs-group"><g class="djs-element djs-shape" data-element-id="Nahr_n__dat_do_syst_mu" transform="matrix(1, 0, 0, 1, 1808, 392)" style="display: block;"><g class="djs-visual"><rect x="0" y="0" width="150" height="72" rx="10" ry="10" style="stroke-linecap: round; stroke-linejoin: round; stroke: rgb(34, 36, 42); stroke-width: 2px; fill: white; fill-opacity: 0.95;"/><text style="font-family: Arial, sans-serif; font-size: 12px; font-weight: normal; fill: rgb(34, 36, 42);" lineHeight="1.2" class="djs-label"><tspan x="11.25" y="39.6">Nahrání dat do systému</tspan></text></g><rect style="fill: none; stroke-opacity: 0; stroke: white; stroke-width: 15px;" class="djs-hit djs-hit-all" x="0" y="0" width="150" height="72"/><rect x="-5" y="-5" rx="14" width="160" height="82" style="fill: none;" class="djs-outline"/></g></g><g class="djs-group"><g class="djs-element djs-shape" data-element-id="Nasazen__nov__verze_aplikace" transform="matrix(1, 0, 0, 1, 2019, 391)" style="display: block;"><g class="djs-visual"><rect x="0" y="0" width="150" height="72" rx="10" ry="10" style="stroke-linecap: round; stroke-linejoin: round; stroke: rgb(34, 36, 42); stroke-width: 2px; fill: white; fill-opacity: 0.95;"/><text style="font-family: Arial, sans-serif; font-size: 12px; font-weight: normal; fill: rgb(34, 36, 42);" lineHeight="1.2" class="djs-label"><tspan x="16.924999237060547" y="32.4">Nasazení nové verze </tspan><tspan x="52.96666717529297" y="46.8">aplikace</tspan></text></g><rect style="fill: none; stroke-opacity: 0; stroke: white; stroke-width: 15px;" class="djs-hit djs-hit-all" x="0" y="0" width="150" height="72"/><rect x="-5" y="-5" rx="14" width="160" height="82" style="fill: none;" class="djs-outline"/></g></g><g class="djs-group"><g class="djs-element djs-shape" data-element-id="Transformace_zdrojov_ch_dat_j_zdn_ho___du" transform="matrix(1, 0, 0, 1, 764, 595)" style="display: block;"><g class="djs-visual"><rect x="0" y="0" width="145" height="89" rx="10" ry="10" style="stroke-linecap: round; stroke-linejoin: round; stroke: rgb(34, 36, 42); stroke-width: 2px; fill: white; fill-opacity: 0.95;"/><text style="font-family: Arial, sans-serif; font-size: 12px; font-weight: normal; fill: rgb(34, 36, 42);" lineHeight="1.2" class="djs-label"><tspan x="34.016666412353516" y="33.7">Transformace </tspan><tspan x="9.416667938232422" y="48.1">zdrojových dat jízdního </tspan><tspan x="60.47500038146973" y="62.5">řádu</tspan></text></g><rect style="fill: none; stroke-opacity: 0; stroke: white; stroke-width: 15px;" class="djs-hit djs-hit-all" x="0" y="0" width="145" height="89"/><rect x="-5" y="-5" rx="14" width="155" height="99" style="fill: none;" class="djs-outline"/></g></g><g class="djs-group"><g class="djs-element djs-shape" data-element-id="Validace_transformovan_ch_dat" transform="matrix(1, 0, 0, 1, 1129, 598)" style="display: block;"><g class="djs-visual"><rect x="0" y="0" width="168" height="72" rx="10" ry="10" style="stroke-linecap: round; stroke-linejoin: round; stroke: rgb(34, 36, 42); stroke-width: 2px; fill: white; fill-opacity: 0.95;"/><text style="font-family: Arial, sans-serif; font-size: 12px; font-weight: normal; fill: rgb(34, 36, 42);" lineHeight="1.2" class="djs-label"><tspan x="10.349998474121094" y="32.4">Validace transformovaných </tspan><tspan x="75.64999961853027" y="46.8">dat</tspan></text></g><rect style="fill: none; stroke-opacity: 0; stroke: white; stroke-width: 15px;" class="djs-hit djs-hit-all" x="0" y="0" width="168" height="72"/><rect x="-5" y="-5" rx="14" width="178" height="82" style="fill: none;" class="djs-outline"/></g></g><g class="djs-group"><g class="djs-element djs-shape" data-element-id="Jsou_data_validn__" transform="matrix(1, 0, 0, 1, 1428, 602)" style="display: block;"><g class="djs-visual"><polygon style="stroke-linecap: round; stroke-linejoin: round; stroke: rgb(34, 36, 42); stroke-width: 2px; fill: white; fill-opacity: 0.95;" points="25,0 50,25 25,50 0,25"/><path style="fill: rgb(34, 36, 42); stroke-linecap: round; stroke-linejoin: round; stroke: rgb(34, 36, 42); stroke-width: 1px;" d="m 16,15 7.42857142857143,9.714285714285715 -7.42857142857143,9.714285714285715 3.428571428571429,0 5.714285714285715,-7.464228571428572 5.714285714285715,7.464228571428572 3.428571428571429,0 -7.42857142857143,-9.714285714285715 7.42857142857143,-9.714285714285715 -3.428571428571429,0 -5.714285714285715,7.464228571428572 -5.714285714285715,-7.464228571428572 -3.428571428571429,0 z"/></g><rect style="fill: none; stroke-opacity: 0; stroke: white; stroke-width: 15px;" class="djs-hit djs-hit-all" x="0" y="0" width="50" height="50"/><rect style="transform-box: fill-box; transform: rotate(45deg); transform-origin: center center 0px; fill: none;" x="2" y="2" rx="4" width="46" height="46" class="djs-outline"/></g></g><g class="djs-group"><g class="djs-element djs-shape" data-element-id="Aktualizovan__data_j_zdn_ch___d__dostupn__v_IS" transform="matrix(1, 0, 0, 1, 2169, 612)" style="display: block;"><g class="djs-visual"><circle cx="25" cy="25" r="25" style="stroke-linecap: round; stroke-linejoin: round; stroke: rgb(34, 36, 42); stroke-width: 1.5px; fill: white; fill-opacity: 0.95;"/><circle cx="25" cy="25" r="22" style="stroke-linecap: round; stroke-linejoin: round; stroke: rgb(34, 36, 42); stroke-width: 1.5px; fill: none;"/></g><rect style="fill: none; stroke-opacity: 0; stroke: white; stroke-width: 15px;" class="djs-hit djs-hit-all" x="0" y="0" width="50" height="50"/><circle cx="25" cy="25" r="30" style="fill: none;" class="djs-outline"/></g></g><g class="djs-group"><g class="djs-element djs-connection" data-element-id="Flow_rel-Zm_na_j_zdn_ho___du-Informov_n__spr_vce_syst_mu_o_zm_n__j_zdn_ch___d_-forward" style="display: block;"><g class="djs-visual"><defs><marker id="marker-bb8x9wvv5e9p3ojnbvl1h6b38" viewBox="0 0 20 20" refX="11" refY="10" markerWidth="10" markerHeight="10" orient="auto"><path d="M 1 5 L 11 10 L 1 15 Z" style="stroke-linecap: round; stroke-linejoin: round; stroke: rgb(34, 36, 42); stroke-width: 1px; fill: rgb(34, 36, 42);"/></marker></defs><path style="fill: none; stroke-linecap: round; stroke-linejoin: round; stroke: rgb(34, 36, 42); stroke-width: 2px; marker-end: url('#marker-bb8x9wvv5e9p3ojnbvl1h6b38');" data-corner-radius="5" d="M325,145L408,145"/></g><path d="M325,145L408,145" style="fill: none; stroke-opacity: 0; stroke: white; stroke-width: 15px;" class="djs-hit djs-hit-stroke"/><rect x="320" y="140" rx="4" width="93" height="10" style="fill: none;" class="djs-outline"/></g></g><g class="djs-group"><g class="djs-element djs-connection" data-element-id="Flow_rel-Informov_n__spr_vce_syst_mu_o_zm_n__j_zdn_ch___d_-P_evzet__informace_o_zm_n__j_zdn_ho___du-forward" style="display: block;"><g class="djs-visual"><defs><marker id="marker-bgmux7lnp1q3rfxaemp40xkda" viewBox="0 0 20 20" refX="11" refY="10" markerWidth="10" markerHeight="10" orient="auto"><path d="M 1 5 L 11 10 L 1 15 Z" style="stroke-linecap: round; stroke-linejoin: round; stroke: rgb(34, 36, 42); stroke-width: 1px; fill: rgb(34, 36, 42);"/></marker></defs><path style="fill: none; stroke-linecap: round; stroke-linejoin: round; stroke: rgb(34, 36, 42); stroke-width: 2px; marker-end: url('#marker-bgmux7lnp1q3rfxaemp40xkda');" data-corner-radius="5" d="M482,254L482,426C482,428.5,484.5,431,487,431L587,431"/></g><path d="M482,254L482,431L587,431" style="fill: none; stroke-opacity: 0; stroke: white; stroke-width: 15px;" class="djs-hit djs-hit-stroke"/><rect x="477" y="249" rx="4" width="115" height="187" style="fill: none;" class="djs-outline"/></g></g><g class="djs-group"><g class="djs-element djs-connection" data-element-id="Flow_rel-P_evzet__informace_o_zm_n__j_zdn_ho___du-Transformace_zdrojov_ch_dat_j_zdn_ho___du-forward" style="display: block;"><g class="djs-visual"><defs><marker id="marker-eqvi6bo8yg4mllcigih6dyr3h" viewBox="0 0 20 20" refX="11" refY="10" markerWidth="10" markerHeight="10" orient="auto"><path d="M 1 5 L 11 10 L 1 15 Z" style="stroke-linecap: round; stroke-linejoin: round; stroke: rgb(34, 36, 42); stroke-width: 1px; fill: rgb(34, 36, 42);"/></marker></defs><path style="fill: none; stroke-linecap: round; stroke-linejoin: round; stroke: rgb(34, 36, 42); stroke-width: 2px; marker-end: url('#marker-eqvi6bo8yg4mllcigih6dyr3h');" data-corner-radius="5" d="M661,491L661,626C661,628.5,663.5,631,666,631L764,631"/></g><path d="M661,491L661,631L764,631" style="fill: none; stroke-opacity: 0; stroke: white; stroke-width: 15px;" class="djs-hit djs-hit-stroke"/><rect x="656" y="486" rx="4" width="113" height="150" style="fill: none;" class="djs-outline"/></g></g><g class="djs-group"><g class="djs-element djs-connection" data-element-id="Flow_rel-Transformace_zdrojov_ch_dat_j_zdn_ho___du-Validace_transformovan_ch_dat-forward" style="display: block;"><g class="djs-visual"><defs><marker id="marker-azwa90ntn2ist4l7a4jes0h18" viewBox="0 0 20 20" refX="11" refY="10" markerWidth="10" markerHeight="10" orient="auto"><path d="M 1 5 L 11 10 L 1 15 Z" style="stroke-linecap: round; stroke-linejoin: round; stroke: rgb(34, 36, 42); stroke-width: 1px; fill: rgb(34, 36, 42);"/></marker></defs><path style="fill: none; stroke-linecap: round; stroke-linejoin: round; stroke: rgb(34, 36, 42); stroke-width: 2px; marker-end: url('#marker-azwa90ntn2ist4l7a4jes0h18');" data-corner-radius="5" d="M909,631L1129,631"/></g><path d="M909,631L1129,631" style="fill: none; stroke-opacity: 0; stroke: white; stroke-width: 15px;" class="djs-hit djs-hit-stroke"/><rect x="904" y="626" rx="4" width="230" height="10" style="fill: none;" class="djs-outline"/></g></g><g class="djs-group"><g class="djs-element djs-connection" data-element-id="Flow_rel-Validace_transformovan_ch_dat-Jsou_data_validn__-forward" style="display: block;"><g class="djs-visual"><defs><marker id="marker-ccfzf0633b3fl9e6gp54bfnsr" viewBox="0 0 20 20" refX="11" refY="10" markerWidth="10" markerHeight="10" orient="auto"><path d="M 1 5 L 11 10 L 1 15 Z" style="stroke-linecap: round; stroke-linejoin: round; stroke: rgb(34, 36, 42); stroke-width: 1px; fill: rgb(34, 36, 42);"/></marker></defs><path style="fill: none; stroke-linecap: round; stroke-linejoin: round; stroke: rgb(34, 36, 42); stroke-width: 2px; marker-end: url('#marker-ccfzf0633b3fl9e6gp54bfnsr');" data-corner-radius="5" d="M1297,630L1431,630"/></g><path d="M1297,630L1431,630" style="fill: none; stroke-opacity: 0; stroke: white; stroke-width: 15px;" class="djs-hit djs-hit-stroke"/><rect x="1292" y="625" rx="4" width="144" height="10" style="fill: none;" class="djs-outline"/></g></g><g class="djs-group"><g class="djs-element djs-connection" data-element-id="Flow_rel-Jsou_data_validn__-Ru_n__kontrola_v_stupn_ch_dat-forward-Ano" style="display: block;"><g class="djs-visual"><defs><marker id="marker-2ar4gnr0rg6vb9esgdnd0rmlr" viewBox="0 0 20 20" refX="11" refY="10" markerWidth="10" markerHeight="10" orient="auto"><path d="M 1 5 L 11 10 L 1 15 Z" style="stroke-linecap: round; stroke-linejoin: round; stroke: rgb(34, 36, 42); stroke-width: 1px; fill: rgb(34, 36, 42);"/></marker></defs><path style="fill: none; stroke-linecap: round; stroke-linejoin: round; stroke: rgb(34, 36, 42); stroke-width: 2px; marker-end: url('#marker-2ar4gnr0rg6vb9esgdnd0rmlr');" data-corner-radius="5" d="M1478,627L1525,627C1527.5,627,1530,624.5,1530,622L1530,433C1530,430.5,1532.5,428,1535,428L1593,428"/></g><path d="M1478,627L1530,627L1530,428L1593,428" style="fill: none; stroke-opacity: 0; stroke: white; stroke-width: 15px;" class="djs-hit djs-hit-stroke"/><rect x="1473" y="423" rx="4" width="125" height="209" style="fill: none;" class="djs-outline"/></g></g><g class="djs-group"><g class="djs-element djs-connection" data-element-id="Flow_rel-Ru_n__kontrola_v_stupn_ch_dat-Nahr_n__dat_do_syst_mu-forward" style="display: block;"><g class="djs-visual"><defs><marker id="marker-8269zqpzoxjwgalkio22fr8aw" viewBox="0 0 20 20" refX="11" refY="10" markerWidth="10" markerHeight="10" orient="auto"><path d="M 1 5 L 11 10 L 1 15 Z" style="stroke-linecap: round; stroke-linejoin: round; stroke: rgb(34, 36, 42); stroke-width: 1px; fill: rgb(34, 36, 42);"/></marker></defs><path style="fill: none; stroke-linecap: round; stroke-linejoin: round; stroke: rgb(34, 36, 42); stroke-width: 2px; marker-end: url('#marker-8269zqpzoxjwgalkio22fr8aw');" data-corner-radius="5" d="M1739,428L1808,428"/></g><path d="M1739,428L1808,428" style="fill: none; stroke-opacity: 0; stroke: white; stroke-width: 15px;" class="djs-hit djs-hit-stroke"/><rect x="1734" y="423" rx="4" width="79" height="10" style="fill: none;" class="djs-outline"/></g></g><g class="djs-group"><g class="djs-element djs-connection" data-element-id="Flow_rel-Nahr_n__dat_do_syst_mu-Nasazen__nov__verze_aplikace-forward" style="display: block;"><g class="djs-visual"><defs><marker id="marker-63ky4xw9rb8k4emk5ldcrqrt5" viewBox="0 0 20 20" refX="11" refY="10" markerWidth="10" markerHeight="10" orient="auto"><path d="M 1 5 L 11 10 L 1 15 Z" style="stroke-linecap: round; stroke-linejoin: round; stroke: rgb(34, 36, 42); stroke-width: 1px; fill: rgb(34, 36, 42);"/></marker></defs><path style="fill: none; stroke-linecap: round; stroke-linejoin: round; stroke: rgb(34, 36, 42); stroke-width: 2px; marker-end: url('#marker-63ky4xw9rb8k4emk5ldcrqrt5');" data-corner-radius="5" d="M1958,428L2019,428"/></g><path d="M1958,428L2019,428" style="fill: none; stroke-opacity: 0; stroke: white; stroke-width: 15px;" class="djs-hit djs-hit-stroke"/><rect x="1953" y="423" rx="4" width="71" height="10" style="fill: none;" class="djs-outline"/></g></g><g class="djs-group"><g class="djs-element djs-connection" data-element-id="Flow_rel-Nasazen__nov__verze_aplikace-Aktualizovan__data_j_zdn_ch___d__dostupn__v_IS-forward" style="display: block;"><g class="djs-visual"><defs><marker id="marker-by3zpb3l1cqgt7mlix11hl6i8" viewBox="0 0 20 20" refX="11" refY="10" markerWidth="10" markerHeight="10" orient="auto"><path d="M 1 5 L 11 10 L 1 15 Z" style="stroke-linecap: round; stroke-linejoin: round; stroke: rgb(34, 36, 42); stroke-width: 1px; fill: rgb(34, 36, 42);"/></marker></defs><path style="fill: none; stroke-linecap: round; stroke-linejoin: round; stroke: rgb(34, 36, 42); stroke-width: 2px; marker-end: url('#marker-by3zpb3l1cqgt7mlix11hl6i8');" data-corner-radius="5" d="M2091,463L2091,632C2091,634.5,2093.5,637,2096,637L2169,637"/></g><path d="M2091,463L2091,637L2169,637" style="fill: none; stroke-opacity: 0; stroke: white; stroke-width: 15px;" class="djs-hit djs-hit-stroke"/><rect x="2086" y="458" rx="4" width="88" height="184" style="fill: none;" class="djs-outline"/></g></g><g class="djs-group"><g class="djs-element djs-connection" data-element-id="Flow_rel-Jsou_data_validn__-Byli_p_ed_ny_v_echny_informace_-forward-Ne" style="display: block;"><g class="djs-visual"><defs><marker id="marker-2hk9rzxp5zaveg2o4ggobyvnd" viewBox="0 0 20 20" refX="11" refY="10" markerWidth="10" markerHeight="10" orient="auto"><path d="M 1 5 L 11 10 L 1 15 Z" style="stroke-linecap: round; stroke-linejoin: round; stroke: rgb(34, 36, 42); stroke-width: 1px; fill: rgb(34, 36, 42);"/></marker></defs><path style="fill: none; stroke-linecap: round; stroke-linejoin: round; stroke: rgb(34, 36, 42); stroke-width: 2px; marker-end: url('#marker-2hk9rzxp5zaveg2o4ggobyvnd');" data-corner-radius="5" d="M1453,602L1453,476C1453,473.5,1450.5,471,1448,471L1383,471"/></g><path d="M1453,602L1453,471L1383,471" style="fill: none; stroke-opacity: 0; stroke: white; stroke-width: 15px;" class="djs-hit djs-hit-stroke"/><rect x="1378" y="466" rx="4" width="80" height="141" style="fill: none;" class="djs-outline"/></g></g><g class="djs-group"><g class="djs-element djs-connection" data-element-id="Flow_rel-_e_en__chyby_v_datech-Transformace_zdrojov_ch_dat_j_zdn_ho___du-forward" style="display: block;"><g class="djs-visual"><defs><marker id="marker-48abelk1fc54w5ab2temv58su" viewBox="0 0 20 20" refX="11" refY="10" markerWidth="10" markerHeight="10" orient="auto"><path d="M 1 5 L 11 10 L 1 15 Z" style="stroke-linecap: round; stroke-linejoin: round; stroke: rgb(34, 36, 42); stroke-width: 1px; fill: rgb(34, 36, 42);"/></marker></defs><path style="fill: none; stroke-linecap: round; stroke-linejoin: round; stroke: rgb(34, 36, 42); stroke-width: 2px; marker-end: url('#marker-48abelk1fc54w5ab2temv58su');" data-corner-radius="5" d="M928,471L839,471C836.5,471,834,473.5,834,476L834,595"/></g><path d="M928,471L834,471L834,595" style="fill: none; stroke-opacity: 0; stroke: white; stroke-width: 15px;" class="djs-hit djs-hit-stroke"/><rect x="829" y="466" rx="4" width="104" height="134" style="fill: none;" class="djs-outline"/></g></g><g class="djs-group"><g class="djs-element djs-connection" data-element-id="Flow_rel-Byli_p_ed_ny_v_echny_informace_-_e_en__chyby_v_datech-forward-Ano" style="display: block;"><g class="djs-visual"><defs><marker id="marker-17vu9v0goipk90j0q0pjq14d9" viewBox="0 0 20 20" refX="11" refY="10" markerWidth="10" markerHeight="10" orient="auto"><path d="M 1 5 L 11 10 L 1 15 Z" style="stroke-linecap: round; stroke-linejoin: round; stroke: rgb(34, 36, 42); stroke-width: 1px; fill: rgb(34, 36, 42);"/></marker></defs><path style="fill: none; stroke-linecap: round; stroke-linejoin: round; stroke: rgb(34, 36, 42); stroke-width: 2px; marker-end: url('#marker-17vu9v0goipk90j0q0pjq14d9');" data-corner-radius="5" d="M1333,471L1082,471"/></g><path d="M1333,471L1082,471" style="fill: none; stroke-opacity: 0; stroke: white; stroke-width: 15px;" class="djs-hit djs-hit-stroke"/><rect x="1077" y="466" rx="4" width="261" height="10" style="fill: none;" class="djs-outline"/></g></g><g class="djs-group"><g class="djs-element djs-connection" data-element-id="Flow_rel-Byli_p_ed_ny_v_echny_informace_-Dopt_n__se_na_informace-forward-Ne" style="display: block;"><g class="djs-visual"><defs><marker id="marker-1xjudjpgi48i5xvdnqby1zf7a" viewBox="0 0 20 20" refX="11" refY="10" markerWidth="10" markerHeight="10" orient="auto"><path d="M 1 5 L 11 10 L 1 15 Z" style="stroke-linecap: round; stroke-linejoin: round; stroke: rgb(34, 36, 42); stroke-width: 1px; fill: rgb(34, 36, 42);"/></marker></defs><path style="fill: none; stroke-linecap: round; stroke-linejoin: round; stroke: rgb(34, 36, 42); stroke-width: 2px; marker-end: url('#marker-1xjudjpgi48i5xvdnqby1zf7a');" data-corner-radius="5" d="M1358,446L1358,370C1358,367.5,1355.5,365,1353,365L1285,365"/></g><path d="M1358,446L1358,365L1285,365" style="fill: none; stroke-opacity: 0; stroke: white; stroke-width: 15px;" class="djs-hit djs-hit-stroke"/><rect x="1280" y="360" rx="4" width="83" height="91" style="fill: none;" class="djs-outline"/></g></g><g class="djs-group"><g class="djs-element djs-connection" data-element-id="Flow_rel-Dopt_n__se_na_informace-Odpov___na_dotaz-forward" style="display: block;"><g class="djs-visual"><defs><marker id="marker-7edk9n9ks0q8jk2dyhmkj3kj5" viewBox="0 0 20 20" refX="11" refY="10" markerWidth="10" markerHeight="10" orient="auto"><path d="M 1 5 L 11 10 L 1 15 Z" style="stroke-linecap: round; stroke-linejoin: round; stroke: rgb(34, 36, 42); stroke-width: 1px; fill: rgb(34, 36, 42);"/></marker></defs><path style="fill: none; stroke-linecap: round; stroke-linejoin: round; stroke: rgb(34, 36, 42); stroke-width: 2px; marker-end: url('#marker-7edk9n9ks0q8jk2dyhmkj3kj5');" data-corner-radius="5" d="M1211,329L1211,215"/></g><path d="M1211,329L1211,215" style="fill: none; stroke-opacity: 0; stroke: white; stroke-width: 15px;" class="djs-hit djs-hit-stroke"/><rect x="1206" y="210" rx="4" width="10" height="124" style="fill: none;" class="djs-outline"/></g></g><g class="djs-group"><g class="djs-element djs-connection" data-element-id="Flow_rel-Odpov___na_dotaz-_e_en__chyby_v_datech-forward" style="display: block;"><g class="djs-visual"><defs><marker id="marker-2g9fg8z3rgn8wzj4igql30hea" viewBox="0 0 20 20" refX="11" refY="10" markerWidth="10" markerHeight="10" orient="auto"><path d="M 1 5 L 11 10 L 1 15 Z" style="stroke-linecap: round; stroke-linejoin: round; stroke: rgb(34, 36, 42); stroke-width: 1px; fill: rgb(34, 36, 42);"/></marker></defs><path style="fill: none; stroke-linecap: round; stroke-linejoin: round; stroke: rgb(34, 36, 42); stroke-width: 2px; marker-end: url('#marker-2g9fg8z3rgn8wzj4igql30hea');" data-corner-radius="5" d="M1138,179L1010,179C1007.5,179,1005,181.5,1005,184L1005,435"/></g><path d="M1138,179L1005,179L1005,435" style="fill: none; stroke-opacity: 0; stroke: white; stroke-width: 15px;" class="djs-hit djs-hit-stroke"/><rect x="1000" y="174" rx="4" width="143" height="266" style="fill: none;" class="djs-outline"/></g></g></g></g><g class="djs-group"><g class="djs-element djs-shape" data-element-id="Byli_p_ed_ny_v_echny_informace__label" transform="matrix(1, 0, 0, 1, 1326, 496)" style="display: block;"><g class="djs-visual"><text style="font-family: Arial, sans-serif; font-size: 11px; font-weight: normal; fill: rgb(34, 36, 42);" lineHeight="1.2" class="djs-label"><tspan x="0" y="9.899999999999999">Byli předány </tspan><tspan x="10.091665267944336" y="23.099999999999998">všechny </tspan><tspan x="4.583332061767578" y="36.3">informace?</tspan></text></g><rect style="fill: none; stroke-opacity: 0; stroke: white; stroke-width: 15px;" class="djs-hit djs-hit-all" x="0" y="0" width="64" height="40"/><rect x="-5" y="-5" rx="4" width="74" height="50" style="fill: none;" class="djs-outline"/></g></g><g class="djs-group"><g class="djs-element djs-shape" data-element-id="Jsou_data_validn___label" transform="matrix(1, 0, 0, 1, 1409, 652)" style="display: block;"><g class="djs-visual"><text style="font-family: Arial, sans-serif; font-size: 11px; font-weight: normal; fill: rgb(34, 36, 42);" lineHeight="1.2" class="djs-label"><tspan x="0" y="9.899999999999999">Jsou data validní?</tspan></text></g><rect style="fill: none; stroke-opacity: 0; stroke: white; stroke-width: 15px;" class="djs-hit djs-hit-all" x="0" y="0" width="89" height="14"/><rect x="-5" y="-5" rx="4" width="99" height="24" style="fill: none;" class="djs-outline"/></g></g><g class="djs-group"><g class="djs-element djs-shape" data-element-id="Aktualizovan__data_j_zdn_ch___d__dostupn__v_IS_label" transform="matrix(1, 0, 0, 1, 2150, 662)" style="display: block;"><g class="djs-visual"><text style="font-family: Arial, sans-serif; font-size: 11px; font-weight: normal; fill: rgb(34, 36, 42);" lineHeight="1.2" class="djs-label"><tspan x="7.9416656494140625" y="9.899999999999999">Aktualizovaná </tspan><tspan x="0" y="23.099999999999998">data jízdních řádů</tspan><tspan x="10.091667175292969" y="36.3">dostupná v IS</tspan></text></g><rect style="fill: none; stroke-opacity: 0; stroke: white; stroke-width: 15px;" class="djs-hit djs-hit-all" x="0" y="0" width="88" height="40"/><rect x="-5" y="-5" rx="4" width="98" height="50" style="fill: none;" class="djs-outline"/></g></g><g class="djs-group"><g class="djs-element djs-shape" data-element-id="Flow_rel-Jsou_data_validn__-Ru_n__kontrola_v_stupn_ch_dat-forward-Ano_label" transform="matrix(1, 0, 0, 1, 1535, 523)" style="display: block;"><g class="djs-visual"><text style="font-family: Arial, sans-serif; font-size: 11px; font-weight: normal; fill: rgb(34, 36, 42);" lineHeight="1.2" class="djs-label"><tspan x="0" y="9.899999999999999">Ano</tspan></text></g><rect style="fill: none; stroke-opacity: 0; stroke: white; stroke-width: 15px;" class="djs-hit djs-hit-all" x="0" y="0" width="20" height="14"/><rect x="-5" y="-5" rx="4" width="30" height="24" style="fill: none;" class="djs-outline"/></g></g><g class="djs-group"><g class="djs-element djs-shape" data-element-id="Flow_rel-Jsou_data_validn__-Byli_p_ed_ny_v_echny_informace_-forward-Ne_label" transform="matrix(1, 0, 0, 1, 1461, 523)" style="display: block;"><g class="djs-visual"><text style="font-family: Arial, sans-serif; font-size: 11px; font-weight: normal; fill: rgb(34, 36, 42);" lineHeight="1.2" class="djs-label"><tspan x="0" y="9.899999999999999">Ne</tspan></text></g><rect style="fill: none; stroke-opacity: 0; stroke: white; stroke-width: 15px;" class="djs-hit djs-hit-all" x="0" y="0" width="15" height="14"/><rect x="-5" y="-5" rx="4" width="25" height="24" style="fill: none;" class="djs-outline"/></g></g><g class="djs-group"><g class="djs-element djs-shape" data-element-id="Flow_rel-Byli_p_ed_ny_v_echny_informace_-_e_en__chyby_v_datech-forward-Ano_label" transform="matrix(1, 0, 0, 1, 1237, 453)" style="display: block;"><g class="djs-visual"><text style="font-family: Arial, sans-serif; font-size: 11px; font-weight: normal; fill: rgb(34, 36, 42);" lineHeight="1.2" class="djs-label"><tspan x="0" y="9.899999999999999">Ano</tspan></text></g><rect style="fill: none; stroke-opacity: 0; stroke: white; stroke-width: 15px;" class="djs-hit djs-hit-all" x="0" y="0" width="20" height="14"/><rect x="-5" y="-5" rx="4" width="30" height="24" style="fill: none;" class="djs-outline"/></g></g><g class="djs-group"><g class="djs-element djs-shape" data-element-id="Flow_rel-Byli_p_ed_ny_v_echny_informace_-Dopt_n__se_na_informace-forward-Ne_label" transform="matrix(1, 0, 0, 1, 1366, 396)" style="display: block;"><g class="djs-visual"><text style="font-family: Arial, sans-serif; font-size: 11px; font-weight: normal; fill: rgb(34, 36, 42);" lineHeight="1.2" class="djs-label"><tspan x="0" y="9.899999999999999">Ne</tspan></text></g><rect style="fill: none; stroke-opacity: 0; stroke: white; stroke-width: 15px;" class="djs-hit djs-hit-all" x="0" y="0" width="15" height="14"/><rect x="-5" y="-5" rx="4" width="25" height="24" style="fill: none;" class="djs-outline"/></g></g></svg>